<svg version="1.2" xmlns="http://www.w3.org/2000/svg" viewBox="0 0 374 112" width="374" height="112">
	<title>default-monochrome-white-svg</title>
	<style>
		.s0 { fill: #000000 } 
	</style>
	<g id="1c5730c1-f71d-4e5c-b7e4-6e3539ebd7c0">
		<path id="Layer" fill-rule="evenodd" class="s0" d="m109.8 59h-16.5v-40.8h14.1c6.9 0 11.4 4.6 11.4 10.2 0 4.2-1.8 7.2-4.9 8.7 4.6 1 8.3 4.7 8.3 10.2 0 7-4.6 11.7-12.4 11.7zm-4.3-33.7h-3.2v9.4h3.2c2.5 0 4.7-2.1 4.7-4.7 0-2.6-2.2-4.7-4.7-4.7zm2.5 16.9h-5.7v9.8h5.7c2.7 0 5-2.3 5-5 0-2.6-2.3-4.8-5-4.8zm47 4.7h-20.6c0 3.1 2.2 6.3 5.7 6.3 3.2 0 5.2-2.1 5.3-4.1h9.1c-1.5 7-7.2 10.5-14.2 10.5-9.1 0-15.4-5.4-15.4-13.8 0-8.3 6.5-13.8 15.4-13.8 8.1 0 14.7 4.8 14.7 13.2 0 0.6 0 1.2 0 1.7zm-8.6-4.3c0 0-0.4-4.9-5.9-4.9-5.6 0-5.9 4.9-5.9 4.9zm23.3 3.2v13.2h-9v-26.4h9v3.2c1.3-2 3.7-3.8 7-3.8 0.7 0 1.9 0.2 2.7 0.6v8.1h-0.2c-0.9-1.1-2.2-1.5-3.6-1.5-3.4 0-5.9 3.4-5.9 6.6zm22.9 0v13.2h-9v-26.4h9v3.2c1.3-2 3.6-3.8 6.9-3.8 0.8 0 2 0.2 2.7 0.6v8.1h-0.1c-0.9-1.1-2.3-1.5-3.6-1.5-3.4 0-5.9 3.4-5.9 6.6zm15.2 28.2l6-15h-1.5l-10.1-26.4h9l6.3 18.9 6.3-18.9h9.2l-10.1 26.4-5.7 15zm82.6-28.8c-2.7 8.4-10.6 14.4-19.9 14.4-11.6 0-21-9.4-21-21 0-11.6 9.4-21 21-21 9.3 0 17.1 6 19.9 14.4h-10c-1.7-3.7-5.8-6-9.9-6-6.6 0-11.9 5.7-11.9 12.6 0 6.9 5.3 12.6 11.9 12.6 4.2 0 8.2-2.4 9.9-6zm34.8 13.8h-9v-3.2c-1.8 2.7-5.7 3.8-9 3.8-7.5 0-13.2-6.5-13.2-13.8 0-7.3 5.7-13.8 13.2-13.8 3.3 0 6.7 0.9 9 3.8v-3.2h9zm-15.3-19.8c-3.6 0-6.3 3.1-6.3 6.6 0 3.5 2.7 6.6 6.3 6.6 3.6 0 6.3-3.1 6.3-6.6 0-3.5-2.7-6.6-6.3-6.6zm22.5 19.8v-45h9v21.8c2.4-2.9 5.7-3.8 9.1-3.8 7.5 0 13.1 6.5 13.1 13.8 0 7.3-5.6 13.8-13.1 13.8-3.4 0-7.3-1.1-9.1-3.8v3.2zm15.3-6.6c3.6 0 6.3-3.1 6.3-6.6 0-3.5-2.7-6.6-6.3-6.6-3.6 0-6.3 3.1-6.3 6.6 0 3.5 2.7 6.6 6.3 6.6z"/>
	</g>
	<g id="a57a6014-8b68-4eb4-92da-f266b08523e0">
		<path id="Layer" fill-rule="evenodd" class="s0" d="m46.6 104.6c0 0-36.6-26.1-36.6-62.2 0-19.6 16.4-35.4 36.6-35.4 20.2 0 36.6 15.8 36.6 35.4 0 36.1-36.6 62.2-36.6 62.2zm18.2-61.9c0-9.8-8.2-17.6-18.2-17.6-10.1 0-18.2 7.8-18.2 17.6 0 9.7 8.1 17.6 18.2 17.6 10 0 18.2-7.9 18.2-17.6z"/>
	</g>
	<g id="5e5198a2-1f90-48df-ac05-66fc360cb385">
		<path id="Layer" fill-rule="evenodd" class="s0" d="m112.7 90.4q0.5 0.8 0.5 1.5 0 0.2-0.1 0.3 0 0.1 0 0.3-0.3 0-0.7-0.1-0.3 0-0.7 0-0.4 0-0.9 0-0.4 0.1-1 0.1-0.6 0.1-1.2 0.2-0.7 0.1-1.6 0.2-0.5-0.1-0.9-0.6-0.4-0.4-0.8-1 0.2-0.4 0.5-1 0.3-0.6 0.6-1.5 0.4-0.8 0.9-2 0.4-1.2 0.9-2.7 0.4-1 0.6-1.7 0.2-0.8 0.4-1.5 0.2-0.7 0.4-1.5 0.2-0.8 0.4-1.8 0.8 0.2 1.3 0.6 0.6 0.4 1.1 1.1-0.2 0.2-0.4 0.8-0.3 0.5-0.6 1.3-0.3 0.7-0.7 1.7-0.4 1-0.8 2.1-0.4 1.1-0.8 2.1-0.4 0.9-0.7 1.7-0.3 0.8-0.5 1.3-0.2 0.6-0.2 0.9 0.3-0.1 0.6-0.1 0.2 0 0.5 0 0.2-0.1 0.5-0.2 0.3 0 0.8-0.1 0.3-0.1 0.6-0.2 0.3 0 0.6-0.1 0.4 0 0.7-0.1 0.3 0 0.7 0zm17.3-6.6q0 1.1-0.4 1.9-0.3 0.8-0.9 1.5-0.6 0.6-1.5 1.1-0.9 0.5-2.1 1 0 0.1 0 0.2 0 0.1 0 0.2 0 0.3 0 0.5 0.1 0.3 0.2 0.5 0 0.2 0.2 0.4 0.2 0.1 0.4 0.1 0.5 0 1-0.2 0.5-0.2 0.9-0.6 0.5-0.3 0.8-0.7 0.4-0.3 0.7-0.7 0.2 0.2 0.3 0.4-0.8 1.1-1.8 1.8-1 0.7-1.9 0.9-1.2-0.1-1.9-0.9-0.8-0.8-0.8-1.9 0-0.7 0.3-1.5 0.2-0.8 0.5-1.6 0.4-0.7 0.9-1.3 0.5-0.7 1.1-1.2 0.6-0.4 1.2-0.7 0.6-0.3 1.3-0.3 0.8 0.1 1.5 1.1zm-1.2 0.6q-0.5 0-1.1 0.4-0.5 0.3-1 0.9-0.4 0.5-0.8 1.3-0.4 0.7-0.6 1.6 1.4-0.8 2.4-1.9 1-1.1 1.1-2.3zm13.4-0.1h-1.1q-0.1-0.1-0.1-0.4-0.1-0.4-0.1-0.7 0.4 0.1 0.9 0.1 0.4 0 0.8 0 0.3-0.5 0.6-1 0.3-0.6 0.6-1.1 0.4-0.4 0.6-0.7 0.3-0.3 0.4-0.4 0.2 0 0.5 0 0.3 0.1 0.6 0.2 0.3 0.1 0.5 0.2 0.3 0.1 0.4 0.2-0.6 0.7-1 1.4-0.4 0.5-0.9 1.3 0.4 0 0.8 0 0.4 0 0.8-0.1 0.1 0.1 0.1 0.3 0.1 0.1 0.1 0.3-0.9 0.3-2.2 0.3-0.5 0.9-0.9 1.8-0.3 0.9-0.6 1.7-0.2 0.8-0.4 1.5-0.1 0.8-0.1 1.3 0 0.8 0.6 0.9 0.6 0 1.1-0.2 0.5-0.2 0.8-0.6 0.2 0.2 0.2 0.3-0.1 0.2-0.4 0.4-0.3 0.2-0.6 0.4-0.3 0.3-0.6 0.4-0.3 0.2-0.4 0.2-0.5 0-1-0.2-0.4-0.2-0.8-0.5-0.4-0.3-0.6-0.6-0.3-0.4-0.3-0.7 0-0.4 0.2-1.1 0.1-0.7 0.3-1.5 0.2-0.8 0.5-1.6 0.3-0.9 0.7-1.8zm16.3-2.3q-0.1-0.1-0.2-0.3-0.1-0.2-0.1-0.4 0.3-0.6 0.4-1.5 0.2-0.8 0.2-1.8 0-0.5 0-1-0.1-0.5-0.2-1 0.9 0.1 1.6 0.4 0.8 0.3 1 0.8-0.3 1.7-1 2.9-0.6 1.2-1.7 1.9zm16.2 2q0 0.4-0.1 0.8-0.1 0.4-0.3 0.7-0.1 0.3-0.3 0.5-0.2 0.2-0.3 0.2-0.2 0-0.2-0.3 0-0.1 0-0.2 0-0.1 0.1-0.2 0.1-0.2 0.1-0.3 0.1-0.2 0.1-0.3 0-0.3-0.2-0.4-0.1-0.2-0.3-0.2-0.7 0-1.1 0.9-0.4 1-0.4 2.7 0 0.2 0 0.3 0.4-0.1 0.7-0.1 0.3 0 0.6 0 0 0.1 0 0.2 0 0.1 0 0.2-0.5 0.1-0.7 0.2-0.3 0-0.4 0.1-0.1 0-0.2 0.1 0 0.1 0 0.2 0 0.1 0 0.3 0 0.1 0 0.4 0 1.5-0.8 2.5-0.9 0.9-2.4 1-0.2 0-0.5-0.1-0.3-0.1-0.5-0.3-0.3-0.2-0.5-0.5-0.1-0.2-0.2-0.5 0-0.7 0.3-1.3 0.3-0.7 0.8-1.2 0.5-0.5 1.2-0.8 0.7-0.3 1.5-0.3 0-0.5-0.1-0.9-0.1-0.5-0.2-0.9-0.1-0.4-0.2-0.8-0.1-0.4-0.1-0.8 0-0.5 0.2-1 0.2-0.5 0.6-0.9 0.3-0.4 0.7-0.7 0.5-0.3 1-0.4 0.2 0 0.5 0.3 0.4 0.3 0.7 0.6 0.3 0.4 0.6 0.7 0.2 0.3 0.3 0.5zm-6.1 8.5q0.4-0.2 0.8-0.5 0.4-0.4 0.7-0.8 0.3-0.5 0.5-1 0.2-0.5 0.2-1-0.4 0.1-0.8 0.4-0.5 0.3-0.9 0.7-0.4 0.4-0.6 0.8-0.3 0.4-0.3 0.7 0 0.4 0.4 0.7zm25.3 4.4q0-0.1 0.1-0.2 0-0.1 0.1-0.2 0.2 0.2 0.4 0.4 0.2 0.1 0.3 0.1 0.1 0.1 0.3 0.1 0.1 0.1 0.3 0.1 1 0 1.9-0.6 0.8-0.5 1.6-1.4 0.8-1 1.4-2.4 0.6-1.4 1.1-3.1-0.2 0.2-0.5 0.5-0.4 0.2-0.7 0.5-0.4 0.2-0.7 0.4-0.3 0.2-0.6 0.3-0.3 0-0.6-0.3-0.2-0.2-0.4-0.5-0.2-0.3-0.4-0.7-0.1-0.4-0.1-0.8 0-0.8 0.3-1.5 0.3-0.8 0.7-1.5 0.5-0.7 1.1-1.4 0.6-0.6 1.2-1.1 0.7-0.5 1.4-0.8 0.7-0.3 1.4-0.3 0.6 0 0.9 0.3 0.4 0.3 0.5 0.9-0.2-0.1-0.5-0.1-0.4 0-1 0.4-0.6 0.3-1.2 0.9-0.6 0.5-1.2 1.3-0.6 0.7-1 1.5-0.5 0.7-0.8 1.4-0.3 0.8-0.3 1.3 0 0.2 0 0.2 0.1 0 0.1 0 0.2 0 0.4-0.2 0.3-0.2 0.7-0.4 0.4-0.3 0.7-0.7 0.4-0.4 0.8-0.8 0.8-0.9 1.4-2 0.7-1.1 1.1-2.1 0.5 0 0.9 0.2 0.4 0.1 0.5 0.3-0.6 1.4-1 2.4-0.4 1-0.7 1.7-0.5 1.3-0.9 2.5-0.4 1-0.9 2-0.4 0.9-1 1.7-0.5 0.8-1.2 1.6-0.3 0.3-0.7 0.6-0.4 0.2-0.8 0.4-0.4 0.2-0.8 0.3-0.4 0.1-0.7 0.1-0.5 0-0.9-0.1-0.5-0.1-0.9-0.3-0.4-0.2-0.7-0.4-0.3-0.2-0.4-0.5zm23.5-4.8q-1.1-0.1-1.7-1-0.6-0.8-0.6-2 0-0.8 0.2-1.6 0.2-0.8 0.6-1.5 0.4-0.8 1-1.4 0.5-0.7 1.2-1.2 1-0.7 1.9-0.7 0.6 0.3 1.2 1.3 0.1 0 0.1 0 0.1 0 0.2 0 1 0 1 1.7 0 1.2-0.4 2.2-0.4 1.1-1.1 1.9-0.6 0.9-1.6 1.4-0.9 0.6-2 0.9zm0.9-5.9q-0.3 0.5-0.6 1-0.2 0.5-0.4 1-0.2 0.5-0.4 1-0.1 0.4-0.1 0.8 0 0.4 0.2 0.8 0.1 0.5 0.3 0.5 0.8-0.2 1.5-0.7 0.7-0.5 1.2-1.3 0.5-0.7 0.8-1.7 0.3-0.9 0.3-2 0-0.5 0-0.8-0.1-0.3-0.2-0.5-0.8 0.3-1.5 0.8-0.6 0.5-1.1 1.1zm40.6-4.8q0 1.1-0.5 2-0.5 0.9-1.3 1.6-0.9 0.7-2.1 1.1-1.1 0.4-2.4 0.4-0.5 0-0.7-0.1-0.3-0.1-0.6-0.5-1 2-1.6 3.7-0.5 1.7-0.9 3.3-0.7-0.2-1.1-0.6-0.4-0.4-0.8-1 0.2-0.4 0.4-0.9 0.3-0.6 0.7-1.4 0.3-0.9 0.8-2.1 0.5-1.1 1.2-2.7 0.3-0.7 0.5-1.3 0.2-0.5 0.4-1 0.1-0.5 0.3-0.9 0.1-0.5 0.3-1-0.9 0.2-1.6 0.6-0.8 0.4-1.2 0.8-0.2-0.1-0.4-0.3-0.2-0.3-0.3-0.5-0.2-0.3-0.3-0.6-0.1-0.3-0.1-0.5 0.5-0.4 1.3-0.7 0.8-0.3 1.7-0.5 0.9-0.2 1.9-0.4 1-0.1 1.9-0.1 1 0 1.9 0.3 0.8 0.2 1.4 0.7 0.6 0.5 0.9 1.2 0.3 0.6 0.3 1.4zm-3.3-2.2q-0.7 0-1.4 0.1l0.2 0.4q-0.2 0.2-0.4 0.7-0.3 0.5-0.6 1.2-0.4 0.6-0.8 1.5-0.4 0.8-0.8 1.7 1.4 0 2.6-0.3 1.2-0.2 2-0.7 0.9-0.5 1.3-1.1 0.5-0.6 0.5-1.3 0-1-0.6-1.6-0.7-0.6-2-0.6zm17.7 4.7q0.2 0 0.5 0.1 0.2 0.1 0.4 0.2 0.2 0.1 0.4 0.2 0.1 0.1 0.1 0.2-0.4 0.8-0.7 1.6-0.3 0.7-0.5 1.5-0.2 0.7-0.4 1.3-0.1 0.6-0.1 1.1 0 0.5 0.1 0.9 0.1 0.3 0.4 0.5-0.2 0.1-0.6 0.2-0.3 0.1-0.6 0.1-1 0-1-1.4 0-1 0.7-2.9-0.4 0.9-0.9 1.6-0.4 0.8-0.9 1.4-0.5 0.5-1 0.9-0.6 0.4-1 0.4-0.7 0-1.1-0.6-0.4-0.6-0.4-1.6 0-1 0.4-2.2 0.5-1.1 1.2-2.1 0.7-1 1.5-1.7 0.8-0.6 1.6-0.7 0.1 0.1 0.4 0.3 0.2 0.1 0.4 0.4 0.2 0.2 0.4 0.4 0.1 0.2 0.1 0.4-0.7 0.1-1.5 0.7-0.8 0.6-1.4 1.5-0.6 0.9-1.1 1.8-0.4 1-0.4 1.9 0 0.3 0.3 0.4 0.5-0.1 1.2-0.9 0.7-0.8 1.7-2.5 0.2-0.3 0.5-0.7 0.2-0.4 0.4-0.9 0.3-0.4 0.5-0.9 0.2-0.4 0.4-0.9zm11.2 7.2q0-0.6 0.3-1.5 0.2-0.8 0.5-1.8 0.3-1 0.7-2 0.3-1 0.7-1.8 0.2-0.6 0.4-0.9 0.2-0.3 0.4-0.6 0.3 0.1 0.6 0.2 0.2 0.1 0.5 0.2 0.2 0.1 0.4 0.3 0.3 0.1 0.4 0.2-0.5 0.6-0.9 1.4-0.4 0.7-0.8 1.9 1-0.9 1.8-1.7 0.7-0.8 1.4-1.8 0.1-0.1 0.4-0.1 0.3 0 0.5 0.1 0.2 0.1 0.3 0.2-0.3 0.9-0.3 1.8 0 0.8 0.2 1.2 0 0.1-0.2 0.4-0.2 0.3-0.5 0.6-0.5-0.2-0.9-0.7-0.4-0.4-0.6-1-0.9 0.6-1.5 1.2-0.6 0.6-1 1.3-0.4 0.7-0.7 1.7-0.3 0.9-0.6 2.1-0.2 0-0.4-0.1-0.3-0.1-0.5-0.2-0.2-0.2-0.4-0.3-0.2-0.2-0.2-0.3zm17.1-0.9q0-0.2 0.1-0.4 0-0.3 0.1-0.7 0-0.4 0.2-1 0.1-0.6 0.3-1.4 0-0.2 0.1-0.6 0.1-0.4 0.4-0.9 0.2-0.4 0.5-0.9 0.3-0.4 0.7-0.6 0.3 0.1 0.8 0.4 0.6 0.3 0.9 0.8-0.4 0.5-0.7 1-0.3 0.5-0.5 1-0.2 0.5-0.4 1.1-0.2 0.5-0.5 1.1-0.2 0.5-0.3 1.1-0.2 0.5-0.2 0.9 0 0.4 0 0.5 0 0.2-0.1 0.2-0.1 0-0.3-0.1-0.2-0.1-0.5-0.3-0.2-0.2-0.4-0.5-0.2-0.3-0.2-0.7zm3.6-8.1q0-0.1 0-0.3-0.1-0.1-0.1-0.3-0.1-0.1-0.1-0.3 0-0.2 0-0.4 0.1-0.3 0.2-0.7 0-0.3 0.2-0.7 0.1-0.3 0.2-0.6 0.2 0 0.5 0.1 0.3 0.1 0.7 0.3 0.3 0.2 0.6 0.4 0.3 0.3 0.4 0.5-0.2 0.2-0.5 0.5-0.4 0.4-0.7 0.8-0.3 0.4-0.5 0.7-0.3 0.4-0.4 0.5-0.2 0-0.4-0.2-0.1-0.1-0.1-0.3zm16.4 1.9q0 0.4-0.1 0.8-0.1 0.4-0.3 0.7-0.1 0.3-0.3 0.5-0.1 0.2-0.3 0.2-0.2 0-0.2-0.3 0-0.1 0-0.2 0.1-0.1 0.1-0.2 0.1-0.2 0.1-0.3 0.1-0.2 0.1-0.3 0-0.3-0.1-0.4-0.2-0.2-0.4-0.2-0.7 0-1.1 0.9-0.4 1-0.4 2.7 0 0.2 0 0.3 0.4-0.1 0.7-0.1 0.3 0 0.6 0 0 0.1 0 0.2 0 0.1 0 0.2-0.5 0.1-0.7 0.2-0.3 0-0.4 0.1-0.1 0-0.1 0.1-0.1 0.1-0.1 0.2 0 0.1 0 0.3 0 0.1 0 0.4 0 1.5-0.8 2.5-0.8 0.9-2.3 1-0.3 0-0.6-0.1-0.3-0.1-0.5-0.3-0.3-0.2-0.4-0.5-0.2-0.2-0.3-0.5 0-0.7 0.3-1.3 0.3-0.7 0.8-1.2 0.5-0.5 1.2-0.8 0.7-0.3 1.5-0.3 0-0.5-0.1-0.9-0.1-0.5-0.2-0.9-0.1-0.4-0.2-0.8-0.1-0.4-0.1-0.8 0-0.5 0.2-1 0.2-0.5 0.6-0.9 0.3-0.4 0.8-0.7 0.4-0.3 0.9-0.4 0.2 0 0.5 0.3 0.4 0.3 0.7 0.6 0.3 0.4 0.6 0.7 0.3 0.3 0.3 0.5zm-6.1 8.5q0.5-0.2 0.8-0.5 0.4-0.4 0.7-0.8 0.3-0.5 0.5-1 0.2-0.5 0.2-1-0.4 0.1-0.8 0.4-0.5 0.3-0.9 0.7-0.4 0.4-0.6 0.8-0.3 0.4-0.3 0.7 0 0.4 0.4 0.7z"/>
	</g>
</svg>