<?xml version="1.0" encoding="UTF-8"?>
<svg xmlns="http://www.w3.org/2000/svg" xmlns:xlink="http://www.w3.org/1999/xlink" width="300px" height="89px" viewBox="0 0 94 28" version="1.1">
<g id="surface1">
<path style=" stroke:none;fill-rule:nonzero;fill:rgb(100%,100%,100%);fill-opacity:1;" d="M 31.203125 6.777344 C 32.074219 6.929688 32.722656 7.226562 33.160156 7.671875 C 33.59375 8.125 33.808594 8.691406 33.808594 9.367188 C 33.808594 10.242188 33.472656 10.929688 32.804688 11.433594 C 32.132812 11.941406 31.167969 12.195312 29.914062 12.195312 L 25.652344 12.195312 L 25.652344 11.515625 L 27.074219 11.144531 L 27.074219 3.007812 L 25.628906 2.636719 L 25.628906 1.957031 L 29.972656 1.957031 C 31.203125 1.957031 32.101562 2.175781 32.660156 2.613281 C 33.222656 3.050781 33.5 3.65625 33.5 4.425781 C 33.5 5.0625 33.296875 5.585938 32.886719 5.992188 C 32.46875 6.394531 31.90625 6.660156 31.203125 6.777344 Z M 29.59375 6.480469 C 30.171875 6.480469 30.640625 6.328125 31.003906 6.027344 C 31.367188 5.730469 31.546875 5.230469 31.546875 4.523438 C 31.546875 3.964844 31.398438 3.550781 31.097656 3.28125 C 30.804688 3.011719 30.402344 2.875 29.890625 2.875 C 29.6875 2.875 29.496094 2.894531 29.324219 2.9375 C 29.148438 2.976562 29.046875 2.996094 29.015625 2.996094 L 29.015625 6.480469 Z M 29.015625 11.15625 C 29.242188 11.238281 29.535156 11.277344 29.890625 11.277344 C 30.460938 11.277344 30.917969 11.113281 31.265625 10.789062 C 31.613281 10.453125 31.785156 9.949219 31.785156 9.273438 C 31.785156 8.628906 31.582031 8.136719 31.179688 7.804688 C 30.777344 7.476562 30.234375 7.316406 29.546875 7.316406 L 29.015625 7.316406 Z M 39.042969 12.363281 C 37.667969 12.363281 36.679688 11.984375 36.070312 11.230469 C 35.460938 10.472656 35.160156 9.433594 35.160156 8.113281 C 35.160156 6.636719 35.496094 5.550781 36.164062 4.855469 C 36.835938 4.171875 37.738281 3.832031 38.875 3.832031 C 40.003906 3.832031 40.828125 4.085938 41.351562 4.59375 C 41.863281 5.101562 42.121094 5.90625 42.121094 7.003906 C 42.121094 7.378906 42.105469 7.714844 42.074219 8.019531 L 37.253906 8.019531 L 37.253906 8.472656 C 37.253906 9.441406 37.453125 10.148438 37.847656 10.585938 C 38.234375 11.023438 38.800781 11.242188 39.550781 11.242188 C 40.214844 11.242188 41 11.113281 41.90625 10.859375 L 42.039062 11.515625 C 41.199219 12.082031 40.203125 12.363281 39.042969 12.363281 Z M 37.289062 7.21875 L 40.132812 7.050781 L 40.132812 6.683594 C 40.132812 6.078125 40.046875 5.625 39.882812 5.320312 C 39.710938 5.011719 39.402344 4.855469 38.960938 4.855469 C 38.351562 4.855469 37.929688 5.042969 37.691406 5.417969 C 37.457031 5.792969 37.320312 6.390625 37.289062 7.21875 Z M 47.648438 5.105469 C 47.160156 5.105469 46.71875 5.203125 46.324219 5.394531 L 46.324219 11.121094 L 48.230469 11.480469 L 48.230469 12.195312 L 43.019531 12.195312 L 43.019531 11.492188 L 44.382812 11.121094 L 44.382812 5.308594 L 43.019531 5.105469 L 43.019531 4.464844 L 45.601562 3.832031 L 46.300781 3.832031 L 46.300781 4.59375 C 46.679688 4.347656 47.09375 4.148438 47.542969 3.996094 C 48 3.847656 48.421875 3.769531 48.808594 3.769531 C 49.039062 3.769531 49.191406 3.777344 49.269531 3.792969 L 48.976562 6.585938 L 47.992188 6.585938 Z M 54.550781 5.105469 C 54.070312 5.105469 53.628906 5.203125 53.226562 5.394531 L 53.226562 11.121094 L 55.132812 11.480469 L 55.132812 12.195312 L 49.933594 12.195312 L 49.933594 11.492188 L 51.296875 11.121094 L 51.296875 5.308594 L 49.933594 5.105469 L 49.933594 4.464844 L 52.515625 3.832031 L 53.214844 3.832031 L 53.214844 4.59375 C 53.59375 4.347656 54.007812 4.148438 54.457031 3.996094 C 54.90625 3.847656 55.324219 3.769531 55.710938 3.769531 C 55.949219 3.769531 56.105469 3.777344 56.183594 3.792969 L 55.875 6.585938 L 54.90625 6.585938 Z M 60.054688 3.972656 L 60.054688 4.59375 L 59.226562 5 L 60.957031 9.59375 L 62.460938 5.023438 L 61.335938 4.75 L 61.335938 3.972656 L 64.804688 3.972656 L 64.804688 4.714844 L 63.75 5.023438 L 61.382812 11.621094 C 60.988281 12.761719 60.558594 13.609375 60.089844 14.164062 C 59.625 14.722656 59.046875 15 58.351562 15 C 57.855469 15 57.277344 14.847656 56.621094 14.546875 L 56.742188 13.867188 L 57.6875 13.867188 C 58.242188 13.867188 58.6875 13.695312 59.027344 13.351562 C 59.375 13.003906 59.6875 12.480469 59.972656 11.789062 L 57.15625 5 L 56.277344 4.59375 L 56.277344 3.972656 Z M 76.121094 11.824219 C 75.625 12.007812 75.140625 12.144531 74.675781 12.230469 C 74.210938 12.320312 73.675781 12.363281 73.066406 12.363281 C 71.425781 12.363281 70.203125 11.867188 69.398438 10.871094 C 68.597656 9.867188 68.199219 8.578125 68.199219 7.003906 C 68.199219 5.429688 68.59375 4.152344 69.382812 3.175781 C 70.175781 2.195312 71.402344 1.707031 73.066406 1.707031 C 73.699219 1.707031 74.234375 1.746094 74.675781 1.824219 C 75.117188 1.914062 75.601562 2.03125 76.121094 2.183594 L 75.957031 4.59375 L 75.210938 4.59375 L 74.796875 2.960938 C 74.351562 2.824219 73.875 2.757812 73.363281 2.757812 C 72.195312 2.757812 71.386719 3.144531 70.9375 3.925781 C 70.476562 4.707031 70.25 5.730469 70.25 7.003906 C 70.25 8.207031 70.484375 9.214844 70.960938 10.035156 C 71.425781 10.863281 72.207031 11.277344 73.304688 11.277344 C 73.785156 11.277344 74.28125 11.207031 74.796875 11.0625 L 75.210938 9.617188 L 75.992188 9.617188 Z M 80.574219 4.964844 C 80.113281 4.964844 79.667969 5.035156 79.234375 5.179688 L 78.855469 6.585938 L 78.039062 6.585938 L 77.753906 4.4375 C 78.828125 4.035156 79.941406 3.832031 81.09375 3.832031 C 81.953125 3.832031 82.605469 3.972656 83.046875 4.261719 C 83.488281 4.546875 83.710938 5.0625 83.710938 5.8125 L 83.710938 10.953125 L 85.070312 11.359375 L 85.070312 11.992188 C 84.359375 12.183594 83.765625 12.277344 83.285156 12.277344 C 82.9375 12.277344 82.625 12.199219 82.347656 12.039062 C 82.070312 11.890625 81.894531 11.667969 81.816406 11.371094 C 81.367188 11.699219 80.933594 11.945312 80.523438 12.113281 C 80.113281 12.277344 79.679688 12.363281 79.222656 12.363281 C 78.628906 12.363281 78.167969 12.171875 77.835938 11.789062 C 77.5 11.398438 77.328125 10.90625 77.328125 10.308594 C 77.328125 9.777344 77.488281 9.285156 77.800781 8.832031 C 78.117188 8.378906 78.667969 8.074219 79.449219 7.921875 L 81.769531 7.46875 L 81.769531 6.21875 C 81.769531 5.773438 81.679688 5.449219 81.507812 5.25 C 81.324219 5.058594 81.015625 4.964844 80.574219 4.964844 Z M 80.523438 8.617188 C 80.074219 8.71875 79.75 8.894531 79.554688 9.140625 C 79.363281 9.386719 79.269531 9.699219 79.269531 10.070312 C 79.269531 10.773438 79.59375 11.121094 80.242188 11.121094 C 80.476562 11.121094 80.738281 11.070312 81.023438 10.964844 C 81.3125 10.863281 81.5625 10.742188 81.769531 10.609375 L 81.769531 8.351562 Z M 88.445312 4.261719 C 88.667969 4.140625 88.941406 4.039062 89.273438 3.949219 C 89.597656 3.871094 89.910156 3.832031 90.210938 3.832031 C 91.394531 3.832031 92.304688 4.171875 92.945312 4.855469 C 93.582031 5.550781 93.902344 6.601562 93.902344 8.019531 C 93.902344 9.277344 93.59375 10.3125 92.980469 11.132812 C 92.355469 11.953125 91.28125 12.363281 89.757812 12.363281 C 89.292969 12.363281 88.734375 12.320312 88.078125 12.230469 C 87.421875 12.144531 86.894531 12.035156 86.492188 11.910156 L 86.492188 1.492188 L 85.152344 1.300781 L 85.152344 0.65625 L 87.816406 0 L 88.445312 0 Z M 88.445312 11.121094 C 88.570312 11.191406 88.75 11.25 88.976562 11.289062 C 89.214844 11.335938 89.476562 11.359375 89.757812 11.359375 C 90.53125 11.359375 91.066406 11.097656 91.355469 10.574219 C 91.648438 10.039062 91.796875 9.199219 91.796875 8.054688 C 91.796875 6.949219 91.652344 6.132812 91.371094 5.609375 C 91.078125 5.089844 90.550781 4.832031 89.792969 4.832031 C 89.527344 4.832031 89.289062 4.859375 89.085938 4.917969 C 88.878906 4.972656 88.667969 5.058594 88.445312 5.179688 Z M 88.445312 11.121094 "/>
<path style=" stroke:none;fill-rule:nonzero;fill:rgb(100%,100%,100%);fill-opacity:1;" d="M 20.875 10.160156 C 20.875 4.601562 16.25 0.09375 10.539062 0.09375 C 4.832031 0.09375 0.207031 4.601562 0.207031 10.160156 C 0.207031 20.4375 10.539062 27.871094 10.539062 27.871094 C 10.539062 27.871094 20.875 20.4375 20.875 10.160156 Z M 10.539062 15.257812 C 7.699219 15.257812 5.398438 13.015625 5.398438 10.246094 C 5.398438 7.480469 7.699219 5.234375 10.539062 5.234375 C 13.382812 5.234375 15.679688 7.480469 15.679688 10.246094 C 15.679688 13.015625 13.382812 15.257812 10.539062 15.257812 Z M 10.539062 15.257812 "/>
<path style=" stroke:none;fill-rule:nonzero;fill:rgb(100%,100%,100%);fill-opacity:1;" d="M 25.796875 15.515625 L 25.628906 15.515625 L 25.632812 15.320312 L 26.851562 15.320312 L 26.851562 15.515625 L 26.636719 15.515625 C 26.550781 15.515625 26.496094 15.523438 26.46875 15.542969 C 26.445312 15.558594 26.429688 15.609375 26.429688 15.691406 L 26.429688 18.109375 C 26.429688 18.191406 26.441406 18.242188 26.460938 18.265625 C 26.480469 18.289062 26.523438 18.300781 26.589844 18.300781 C 27.242188 18.292969 27.640625 18.277344 27.789062 18.25 C 27.835938 18.246094 27.871094 18.21875 27.890625 18.167969 C 27.90625 18.117188 27.9375 17.964844 27.984375 17.710938 L 28.152344 17.71875 L 27.992188 18.519531 L 25.695312 18.519531 L 25.691406 18.332031 L 25.824219 18.332031 C 25.9375 18.332031 26.003906 18.324219 26.015625 18.308594 C 26.035156 18.292969 26.046875 18.238281 26.046875 18.148438 L 26.046875 15.667969 C 26.046875 15.601562 26.03125 15.558594 25.996094 15.542969 C 25.960938 15.523438 25.894531 15.515625 25.796875 15.515625 Z M 30.765625 17.640625 C 30.765625 17.332031 30.84375 17.082031 31.003906 16.894531 C 31.167969 16.703125 31.367188 16.605469 31.609375 16.605469 C 31.84375 16.605469 32.035156 16.679688 32.179688 16.828125 C 32.328125 16.972656 32.398438 17.105469 32.398438 17.21875 C 32.398438 17.242188 32.390625 17.261719 32.371094 17.273438 C 32.355469 17.285156 32.339844 17.292969 32.320312 17.292969 L 31.128906 17.4375 L 31.128906 17.464844 C 31.128906 17.46875 31.128906 17.476562 31.125 17.488281 C 31.125 17.496094 31.121094 17.5 31.121094 17.503906 C 31.121094 17.742188 31.1875 17.925781 31.324219 18.058594 C 31.453125 18.191406 31.621094 18.253906 31.824219 18.253906 C 31.9375 18.253906 32.039062 18.238281 32.132812 18.199219 C 32.230469 18.15625 32.300781 18.121094 32.347656 18.089844 C 32.40625 18.050781 32.445312 18.03125 32.457031 18.03125 C 32.488281 18.03125 32.503906 18.050781 32.503906 18.089844 C 32.503906 18.132812 32.46875 18.1875 32.398438 18.253906 C 32.324219 18.332031 32.21875 18.40625 32.085938 18.472656 C 31.9375 18.546875 31.789062 18.582031 31.636719 18.582031 C 31.480469 18.582031 31.34375 18.554688 31.222656 18.492188 C 31.097656 18.425781 31.007812 18.34375 30.945312 18.246094 C 30.878906 18.136719 30.835938 18.039062 30.808594 17.949219 C 30.78125 17.851562 30.765625 17.75 30.765625 17.640625 Z M 31.136719 17.269531 L 31.953125 17.160156 C 31.953125 17.160156 31.953125 17.152344 31.953125 17.140625 C 31.945312 17.132812 31.945312 17.125 31.941406 17.121094 C 31.9375 17.117188 31.933594 17.105469 31.921875 17.082031 C 31.910156 17.0625 31.898438 17.042969 31.886719 17.023438 C 31.863281 16.976562 31.835938 16.933594 31.8125 16.90625 C 31.789062 16.875 31.75 16.84375 31.699219 16.8125 C 31.652344 16.785156 31.605469 16.769531 31.558594 16.769531 C 31.464844 16.769531 31.375 16.8125 31.292969 16.90625 C 31.210938 16.996094 31.160156 17.117188 31.136719 17.269531 Z M 35.097656 16.863281 C 35.097656 16.855469 35.105469 16.835938 35.128906 16.800781 C 35.144531 16.78125 35.1875 16.738281 35.253906 16.667969 C 35.292969 16.632812 35.328125 16.589844 35.367188 16.542969 L 35.5 16.378906 L 35.625 16.222656 C 35.652344 16.183594 35.671875 16.164062 35.683594 16.164062 C 35.703125 16.164062 35.710938 16.175781 35.710938 16.199219 L 35.710938 16.675781 L 36.355469 16.675781 L 36.328125 16.90625 L 35.710938 16.90625 L 35.710938 18.023438 C 35.710938 18.210938 35.820312 18.304688 36.035156 18.304688 C 36.089844 18.304688 36.144531 18.296875 36.195312 18.28125 C 36.25 18.269531 36.292969 18.253906 36.328125 18.238281 C 36.335938 18.234375 36.34375 18.230469 36.351562 18.222656 C 36.359375 18.21875 36.367188 18.21875 36.375 18.21875 L 36.378906 18.214844 C 36.402344 18.214844 36.410156 18.230469 36.410156 18.261719 C 36.410156 18.328125 36.347656 18.398438 36.222656 18.46875 C 36.097656 18.539062 35.972656 18.574219 35.847656 18.574219 C 35.6875 18.574219 35.566406 18.527344 35.492188 18.433594 C 35.417969 18.335938 35.382812 18.210938 35.382812 18.058594 L 35.382812 16.90625 L 35.152344 16.90625 C 35.113281 16.902344 35.097656 16.890625 35.097656 16.863281 Z M 38.980469 16.183594 C 38.980469 16.140625 39.019531 16.011719 39.097656 15.800781 C 39.109375 15.761719 39.128906 15.683594 39.164062 15.566406 L 39.226562 15.339844 C 39.238281 15.28125 39.257812 15.226562 39.28125 15.167969 C 39.304688 15.117188 39.332031 15.074219 39.367188 15.042969 C 39.402344 15.015625 39.441406 15 39.488281 15 C 39.535156 15 39.570312 15.015625 39.597656 15.050781 C 39.617188 15.082031 39.628906 15.117188 39.628906 15.15625 C 39.628906 15.199219 39.613281 15.257812 39.574219 15.339844 C 39.554688 15.390625 39.503906 15.488281 39.417969 15.632812 C 39.359375 15.726562 39.3125 15.808594 39.28125 15.875 C 39.269531 15.890625 39.265625 15.90625 39.261719 15.921875 C 39.253906 15.933594 39.246094 15.949219 39.238281 15.960938 C 39.234375 15.976562 39.222656 15.996094 39.207031 16.019531 C 39.183594 16.066406 39.167969 16.101562 39.15625 16.121094 C 39.15625 16.132812 39.148438 16.144531 39.136719 16.160156 C 39.125 16.175781 39.117188 16.1875 39.113281 16.1875 C 39.101562 16.210938 39.089844 16.226562 39.078125 16.234375 C 39.066406 16.238281 39.050781 16.242188 39.039062 16.242188 C 39 16.242188 38.980469 16.222656 38.980469 16.183594 Z M 42.496094 18.640625 L 42.410156 17.84375 L 42.558594 17.832031 L 42.609375 18.230469 C 42.777344 18.355469 42.949219 18.417969 43.128906 18.417969 C 43.214844 18.417969 43.285156 18.390625 43.335938 18.332031 C 43.382812 18.273438 43.40625 18.210938 43.40625 18.144531 C 43.40625 18.09375 43.390625 18.039062 43.355469 17.988281 C 43.324219 17.9375 43.289062 17.898438 43.25 17.867188 C 43.210938 17.839844 43.152344 17.796875 43.078125 17.746094 L 42.90625 17.632812 C 42.667969 17.472656 42.550781 17.296875 42.550781 17.101562 C 42.550781 16.96875 42.605469 16.859375 42.71875 16.765625 C 42.832031 16.667969 42.96875 16.621094 43.128906 16.621094 C 43.222656 16.621094 43.3125 16.632812 43.40625 16.660156 L 43.542969 16.707031 C 43.570312 16.707031 43.585938 16.660156 43.585938 16.5625 L 43.738281 16.566406 L 43.738281 17.292969 L 43.585938 17.292969 L 43.582031 16.949219 C 43.480469 16.84375 43.332031 16.792969 43.136719 16.796875 C 43.070312 16.796875 43.007812 16.816406 42.949219 16.859375 C 42.890625 16.90625 42.863281 16.960938 42.863281 17.023438 C 42.863281 17.066406 42.878906 17.109375 42.910156 17.160156 C 42.9375 17.203125 42.964844 17.230469 42.988281 17.246094 L 43.125 17.34375 L 43.339844 17.492188 C 43.429688 17.550781 43.503906 17.605469 43.554688 17.644531 C 43.613281 17.691406 43.660156 17.746094 43.695312 17.816406 C 43.738281 17.886719 43.761719 17.960938 43.761719 18.039062 C 43.761719 18.191406 43.707031 18.316406 43.597656 18.421875 C 43.484375 18.53125 43.332031 18.582031 43.136719 18.582031 C 43.074219 18.582031 43.003906 18.578125 42.933594 18.566406 C 42.90625 18.566406 42.847656 18.554688 42.753906 18.535156 C 42.707031 18.523438 42.679688 18.519531 42.671875 18.519531 C 42.644531 18.519531 42.628906 18.539062 42.628906 18.582031 L 42.628906 18.609375 C 42.628906 18.609375 42.628906 18.613281 42.632812 18.621094 L 42.636719 18.632812 Z M 49.550781 19.253906 C 49.550781 19 49.710938 18.808594 50.039062 18.675781 L 50.207031 18.613281 C 50.1875 18.613281 50.167969 18.613281 50.15625 18.613281 C 50.152344 18.613281 50.136719 18.609375 50.109375 18.601562 C 50.085938 18.59375 50.066406 18.582031 50.046875 18.578125 C 50.011719 18.566406 49.964844 18.550781 49.90625 18.527344 C 49.867188 18.507812 49.828125 18.480469 49.796875 18.445312 C 49.761719 18.398438 49.746094 18.359375 49.746094 18.320312 C 49.746094 18.179688 49.875 18.070312 50.128906 17.996094 L 50.1875 17.976562 C 50.1875 17.976562 50.179688 17.976562 50.167969 17.972656 C 50.15625 17.96875 50.148438 17.964844 50.144531 17.964844 C 50.128906 17.957031 50.089844 17.933594 50.03125 17.898438 C 49.992188 17.875 49.945312 17.832031 49.898438 17.777344 C 49.855469 17.730469 49.820312 17.667969 49.789062 17.589844 C 49.757812 17.515625 49.742188 17.425781 49.742188 17.328125 C 49.742188 17.128906 49.820312 16.960938 49.972656 16.816406 C 50.121094 16.675781 50.296875 16.605469 50.496094 16.605469 C 50.632812 16.605469 50.757812 16.636719 50.875 16.703125 C 50.984375 16.765625 51.089844 16.800781 51.1875 16.800781 C 51.242188 16.800781 51.289062 16.792969 51.324219 16.777344 C 51.363281 16.765625 51.386719 16.753906 51.390625 16.742188 C 51.40625 16.726562 51.421875 16.710938 51.4375 16.6875 L 51.460938 16.632812 L 51.5625 16.632812 L 51.5625 16.753906 C 51.5625 16.871094 51.550781 16.941406 51.53125 16.96875 C 51.511719 17 51.457031 17.015625 51.367188 17.015625 L 51.292969 17.015625 C 51.207031 17.015625 51.164062 17.019531 51.164062 17.027344 C 51.164062 17.039062 51.175781 17.054688 51.195312 17.078125 C 51.210938 17.097656 51.230469 17.136719 51.253906 17.1875 C 51.265625 17.226562 51.273438 17.285156 51.273438 17.355469 C 51.273438 17.542969 51.199219 17.703125 51.054688 17.832031 C 50.90625 17.960938 50.722656 18.027344 50.496094 18.027344 C 50.363281 18.027344 50.265625 18.039062 50.195312 18.066406 C 50.121094 18.097656 50.082031 18.140625 50.082031 18.199219 C 50.082031 18.226562 50.089844 18.25 50.105469 18.273438 C 50.121094 18.289062 50.144531 18.300781 50.183594 18.304688 C 50.1875 18.304688 50.199219 18.308594 50.226562 18.3125 C 50.25 18.316406 50.265625 18.320312 50.28125 18.320312 L 50.570312 18.320312 C 50.59375 18.320312 50.625 18.320312 50.664062 18.316406 C 50.703125 18.3125 50.726562 18.3125 50.738281 18.3125 C 51.316406 18.3125 51.601562 18.492188 51.601562 18.851562 C 51.601562 19.089844 51.480469 19.304688 51.234375 19.496094 C 50.992188 19.6875 50.6875 19.785156 50.320312 19.785156 C 50.121094 19.785156 49.941406 19.738281 49.785156 19.644531 C 49.628906 19.554688 49.550781 19.421875 49.550781 19.253906 Z M 49.914062 19.199219 C 49.914062 19.308594 49.960938 19.394531 50.050781 19.460938 C 50.144531 19.527344 50.28125 19.558594 50.46875 19.558594 C 50.671875 19.558594 50.855469 19.507812 51.019531 19.40625 C 51.1875 19.304688 51.269531 19.160156 51.269531 18.980469 C 51.269531 18.742188 51.070312 18.625 50.675781 18.625 C 50.460938 18.625 50.277344 18.6875 50.128906 18.808594 C 49.984375 18.929688 49.914062 19.058594 49.914062 19.199219 Z M 50.136719 17.292969 C 50.136719 17.480469 50.175781 17.625 50.257812 17.722656 C 50.335938 17.828125 50.425781 17.878906 50.53125 17.878906 C 50.625 17.878906 50.703125 17.835938 50.769531 17.746094 C 50.835938 17.660156 50.867188 17.535156 50.867188 17.375 C 50.867188 17.1875 50.832031 17.042969 50.757812 16.9375 C 50.679688 16.832031 50.585938 16.777344 50.480469 16.777344 C 50.386719 16.777344 50.304688 16.824219 50.238281 16.910156 C 50.171875 17.003906 50.136719 17.132812 50.136719 17.292969 Z M 54.199219 17.585938 C 54.199219 17.308594 54.277344 17.078125 54.4375 16.890625 C 54.601562 16.695312 54.839844 16.597656 55.144531 16.597656 C 55.296875 16.597656 55.433594 16.621094 55.550781 16.667969 C 55.6875 16.722656 55.78125 16.78125 55.839844 16.839844 C 55.910156 16.910156 55.96875 16.996094 56.019531 17.089844 C 56.0625 17.175781 56.09375 17.265625 56.113281 17.367188 C 56.132812 17.453125 56.140625 17.542969 56.144531 17.636719 C 56.144531 17.910156 56.054688 18.136719 55.871094 18.320312 C 55.691406 18.503906 55.449219 18.59375 55.152344 18.59375 C 54.851562 18.59375 54.617188 18.492188 54.449219 18.289062 C 54.28125 18.09375 54.199219 17.859375 54.199219 17.585938 Z M 54.582031 17.46875 C 54.582031 17.703125 54.640625 17.921875 54.761719 18.117188 C 54.878906 18.308594 55.027344 18.40625 55.210938 18.40625 C 55.394531 18.40625 55.527344 18.332031 55.613281 18.179688 C 55.699219 18.027344 55.742188 17.84375 55.742188 17.625 C 55.742188 17.34375 55.683594 17.132812 55.5625 16.988281 C 55.4375 16.835938 55.285156 16.761719 55.101562 16.757812 C 54.953125 16.757812 54.828125 16.820312 54.730469 16.945312 C 54.628906 17.066406 54.582031 17.242188 54.582031 17.46875 Z M 63.28125 18.519531 L 62.015625 18.519531 L 62.015625 18.332031 L 62.164062 18.332031 C 62.246094 18.332031 62.296875 18.328125 62.308594 18.3125 C 62.324219 18.296875 62.332031 18.257812 62.332031 18.195312 L 62.332031 15.683594 C 62.332031 15.609375 62.324219 15.5625 62.308594 15.542969 C 62.285156 15.523438 62.234375 15.515625 62.152344 15.515625 L 62.027344 15.515625 L 62.03125 15.320312 L 63.015625 15.320312 C 63.273438 15.320312 63.476562 15.335938 63.625 15.359375 C 63.761719 15.378906 63.882812 15.4375 63.988281 15.527344 C 64.257812 15.746094 64.394531 16.035156 64.394531 16.386719 C 64.394531 16.625 64.304688 16.828125 64.132812 17 C 63.957031 17.175781 63.710938 17.261719 63.390625 17.257812 C 63.351562 17.257812 63.285156 17.253906 63.191406 17.246094 C 63.164062 17.246094 63.105469 17.234375 63.011719 17.21875 C 62.933594 17.203125 62.882812 17.195312 62.863281 17.191406 C 62.796875 17.175781 62.761719 17.167969 62.757812 17.164062 L 62.71875 17.160156 L 62.71875 18.195312 C 62.71875 18.257812 62.734375 18.296875 62.761719 18.3125 C 62.789062 18.328125 62.882812 18.332031 63.042969 18.332031 L 63.28125 18.332031 Z M 62.71875 15.734375 L 62.71875 17.015625 C 62.796875 17.078125 62.945312 17.105469 63.167969 17.105469 C 63.425781 17.105469 63.617188 17.046875 63.746094 16.921875 C 63.882812 16.800781 63.949219 16.617188 63.949219 16.378906 C 63.949219 16.109375 63.84375 15.898438 63.640625 15.742188 C 63.433594 15.589844 63.175781 15.515625 62.863281 15.515625 C 62.804688 15.515625 62.765625 15.527344 62.75 15.550781 C 62.730469 15.570312 62.71875 15.632812 62.71875 15.734375 Z M 67.105469 18.207031 C 67.105469 18.011719 67.199219 17.839844 67.382812 17.695312 C 67.570312 17.550781 67.796875 17.476562 68.0625 17.476562 L 68.0625 17.1875 C 68.0625 17.074219 68.042969 16.988281 68.007812 16.933594 C 67.96875 16.875 67.882812 16.847656 67.746094 16.847656 C 67.535156 16.851562 67.40625 16.902344 67.359375 16.996094 C 67.363281 17.027344 67.371094 17.050781 67.378906 17.074219 C 67.378906 17.085938 67.382812 17.101562 67.386719 17.121094 L 67.394531 17.152344 C 67.402344 17.175781 67.40625 17.195312 67.40625 17.207031 C 67.40625 17.246094 67.386719 17.277344 67.351562 17.300781 C 67.316406 17.320312 67.28125 17.328125 67.253906 17.328125 C 67.179688 17.328125 67.144531 17.273438 67.144531 17.160156 C 67.144531 17.113281 67.15625 17.070312 67.179688 17.023438 C 67.203125 16.964844 67.242188 16.90625 67.296875 16.851562 C 67.355469 16.785156 67.445312 16.730469 67.5625 16.6875 C 67.6875 16.644531 67.824219 16.621094 67.976562 16.621094 C 68.027344 16.621094 68.066406 16.625 68.09375 16.632812 C 68.132812 16.640625 68.175781 16.65625 68.226562 16.679688 C 68.273438 16.703125 68.3125 16.742188 68.347656 16.800781 C 68.378906 16.855469 68.394531 16.925781 68.394531 17.003906 L 68.394531 17.902344 C 68.394531 18.019531 68.417969 18.113281 68.460938 18.1875 C 68.496094 18.253906 68.578125 18.304688 68.703125 18.335938 C 68.730469 18.347656 68.746094 18.359375 68.75 18.378906 C 68.75 18.398438 68.734375 18.414062 68.703125 18.429688 C 68.546875 18.535156 68.453125 18.59375 68.421875 18.601562 C 68.371094 18.5625 68.332031 18.53125 68.308594 18.511719 L 68.238281 18.4375 L 68.167969 18.351562 C 68.15625 18.34375 68.148438 18.332031 68.140625 18.316406 C 68.128906 18.304688 68.121094 18.292969 68.117188 18.28125 C 68.109375 18.277344 68.105469 18.269531 68.097656 18.265625 C 68.042969 18.339844 67.960938 18.414062 67.847656 18.480469 C 67.746094 18.542969 67.644531 18.574219 67.546875 18.574219 C 67.429688 18.574219 67.328125 18.542969 67.238281 18.480469 C 67.152344 18.421875 67.105469 18.332031 67.105469 18.207031 Z M 67.441406 18.066406 C 67.441406 18.136719 67.464844 18.195312 67.511719 18.242188 C 67.558594 18.289062 67.628906 18.3125 67.726562 18.3125 C 67.847656 18.3125 67.933594 18.285156 67.988281 18.230469 C 68.035156 18.179688 68.0625 18.121094 68.0625 18.050781 L 68.0625 17.605469 C 67.878906 17.605469 67.730469 17.652344 67.613281 17.746094 C 67.496094 17.847656 67.441406 17.953125 67.441406 18.066406 Z M 71.257812 16.882812 L 71.242188 16.730469 C 71.417969 16.695312 71.648438 16.640625 71.9375 16.574219 L 71.9375 17.113281 L 71.960938 17.074219 C 71.960938 17.0625 71.96875 17.054688 71.972656 17.042969 C 71.980469 17.03125 71.988281 17.023438 71.996094 17.011719 C 72.003906 17 72.007812 16.988281 72.011719 16.980469 C 72.027344 16.957031 72.054688 16.917969 72.09375 16.863281 C 72.128906 16.820312 72.160156 16.78125 72.191406 16.75 C 72.21875 16.722656 72.257812 16.691406 72.3125 16.660156 C 72.359375 16.636719 72.402344 16.625 72.445312 16.625 C 72.496094 16.625 72.546875 16.636719 72.597656 16.660156 C 72.640625 16.675781 72.667969 16.695312 72.679688 16.714844 L 72.707031 16.742188 L 72.527344 17.21875 L 72.449219 17.191406 L 72.449219 17.128906 C 72.449219 17.054688 72.414062 17.019531 72.339844 17.019531 C 72.253906 17.019531 72.167969 17.054688 72.078125 17.125 C 71.992188 17.195312 71.945312 17.273438 71.945312 17.355469 L 71.945312 18.167969 C 71.945312 18.257812 71.960938 18.3125 71.992188 18.332031 C 72.03125 18.355469 72.113281 18.363281 72.246094 18.363281 L 72.449219 18.363281 L 72.449219 18.519531 L 71.316406 18.519531 L 71.316406 18.363281 L 71.402344 18.363281 C 71.492188 18.363281 71.550781 18.355469 71.578125 18.335938 C 71.601562 18.320312 71.613281 18.261719 71.613281 18.167969 L 71.613281 17 C 71.613281 16.929688 71.609375 16.882812 71.605469 16.863281 C 71.59375 16.839844 71.574219 16.828125 71.546875 16.828125 C 71.542969 16.828125 71.53125 16.828125 71.511719 16.832031 C 71.492188 16.835938 71.457031 16.839844 71.40625 16.851562 C 71.355469 16.859375 71.304688 16.871094 71.257812 16.882812 Z M 75.296875 16.859375 L 75.289062 16.714844 C 75.523438 16.679688 75.75 16.628906 75.960938 16.574219 L 75.960938 18.238281 C 75.960938 18.292969 75.976562 18.328125 76.003906 18.339844 C 76.035156 18.355469 76.117188 18.363281 76.257812 18.363281 L 76.34375 18.363281 L 76.34375 18.519531 L 75.308594 18.519531 L 75.308594 18.363281 L 75.351562 18.363281 C 75.476562 18.363281 75.554688 18.359375 75.582031 18.347656 C 75.609375 18.332031 75.625 18.304688 75.628906 18.253906 L 75.628906 16.976562 C 75.628906 16.914062 75.625 16.875 75.613281 16.855469 C 75.605469 16.832031 75.585938 16.824219 75.558594 16.824219 C 75.519531 16.824219 75.429688 16.835938 75.296875 16.859375 Z M 75.648438 15.667969 C 75.648438 15.628906 75.671875 15.585938 75.722656 15.542969 C 75.773438 15.492188 75.8125 15.46875 75.847656 15.46875 C 75.878906 15.46875 75.917969 15.496094 75.972656 15.542969 C 76.027344 15.601562 76.054688 15.644531 76.054688 15.675781 C 76.054688 15.707031 76.027344 15.75 75.972656 15.804688 C 75.917969 15.859375 75.875 15.886719 75.847656 15.886719 C 75.804688 15.886719 75.761719 15.859375 75.714844 15.800781 C 75.671875 15.746094 75.648438 15.699219 75.648438 15.667969 Z M 78.988281 18.640625 L 78.902344 17.84375 L 79.046875 17.832031 L 79.09375 18.230469 C 79.265625 18.355469 79.441406 18.417969 79.617188 18.417969 C 79.707031 18.417969 79.777344 18.390625 79.824219 18.332031 C 79.871094 18.273438 79.894531 18.210938 79.894531 18.144531 C 79.894531 18.09375 79.878906 18.039062 79.84375 17.988281 C 79.8125 17.9375 79.777344 17.898438 79.738281 17.867188 C 79.699219 17.839844 79.644531 17.796875 79.566406 17.746094 L 79.394531 17.632812 C 79.15625 17.472656 79.039062 17.296875 79.039062 17.101562 C 79.039062 16.96875 79.09375 16.859375 79.203125 16.765625 C 79.320312 16.667969 79.457031 16.621094 79.617188 16.621094 C 79.710938 16.621094 79.800781 16.632812 79.894531 16.660156 L 80.035156 16.707031 C 80.0625 16.707031 80.074219 16.660156 80.078125 16.5625 L 80.226562 16.566406 L 80.226562 17.292969 L 80.078125 17.292969 L 80.070312 16.949219 C 79.96875 16.84375 79.820312 16.792969 79.621094 16.796875 C 79.558594 16.796875 79.496094 16.816406 79.4375 16.859375 C 79.378906 16.90625 79.351562 16.960938 79.355469 17.023438 C 79.355469 17.066406 79.371094 17.109375 79.402344 17.160156 C 79.429688 17.203125 79.453125 17.230469 79.476562 17.246094 L 79.617188 17.34375 L 79.828125 17.492188 C 79.917969 17.550781 79.988281 17.605469 80.042969 17.644531 C 80.101562 17.691406 80.148438 17.746094 80.1875 17.816406 C 80.226562 17.886719 80.246094 17.960938 80.246094 18.039062 C 80.246094 18.191406 80.195312 18.316406 80.085938 18.421875 C 79.976562 18.53125 79.824219 18.582031 79.628906 18.582031 C 79.5625 18.582031 79.492188 18.578125 79.421875 18.566406 C 79.394531 18.566406 79.335938 18.554688 79.246094 18.535156 C 79.199219 18.523438 79.171875 18.519531 79.164062 18.519531 C 79.136719 18.519531 79.121094 18.539062 79.121094 18.582031 L 79.121094 18.609375 C 79.121094 18.609375 79.121094 18.613281 79.121094 18.621094 L 79.121094 18.632812 Z M 78.988281 18.640625 "/>
</g>
</svg>
