<svg data-v-423bf9ae="" xmlns="http://www.w3.org/2000/svg" viewBox="0 0 379 112" class="iconLeftSlogan"><!----><!----><!----><g data-v-423bf9ae="" id="4c52b496-513a-4df5-a73d-eb0861cbcd5e" fill="black" transform="matrix(4.773269805623416,0,0,4.773269805623416,100.94669278860002,-16.706444319681957)"><path d="M5.21 9.18L5.21 9.18Q6.31 9.37 6.86 9.93L6.86 9.93L6.86 9.93Q7.41 10.50 7.41 11.35L7.41 11.35L7.41 11.35Q7.41 12.45 6.56 13.08L6.56 13.08L6.56 13.08Q5.71 13.72 4.12 13.72L4.12 13.72L0.52 13.72L0.52 13.15L1.72 12.84L1.72 6.02L0.50 5.71L0.50 5.14L4.17 5.14L4.17 5.14Q5.73 5.14 6.44 5.69L6.44 5.69L6.44 5.69Q7.15 6.24 7.15 7.21L7.15 7.21L7.15 7.21Q7.15 8.01 6.63 8.52L6.63 8.52L6.63 8.52Q6.10 9.03 5.21 9.18L5.21 9.18ZM3.85 8.93L3.85 8.93Q4.58 8.93 5.04 8.55L5.04 8.55L5.04 8.55Q5.50 8.18 5.50 7.29L5.50 7.29L5.50 7.29Q5.50 6.59 5.12 6.25L5.12 6.25L5.12 6.25Q4.75 5.91 4.10 5.91L4.10 5.91L4.10 5.91Q3.84 5.91 3.62 5.96L3.62 5.96L3.62 5.96Q3.40 6.01 3.36 6.01L3.36 6.01L3.36 8.93L3.85 8.93ZM3.36 12.85L3.36 12.85Q3.65 12.95 4.10 12.95L4.10 12.95L4.10 12.95Q4.82 12.95 5.26 12.54L5.26 12.54L5.26 12.54Q5.70 12.12 5.70 11.27L5.70 11.27L5.70 11.27Q5.70 10.46 5.19 10.04L5.19 10.04L5.19 10.04Q4.68 9.63 3.81 9.63L3.81 9.63L3.36 9.63L3.36 12.85ZM11.83 13.86L11.83 13.86Q10.09 13.86 9.32 12.91L9.32 12.91L9.32 12.91Q8.55 11.96 8.55 10.30L8.55 10.30L8.55 10.30Q8.55 8.44 9.40 7.57L9.40 7.57L9.40 7.57Q10.25 6.71 11.69 6.71L11.69 6.71L11.69 6.71Q13.12 6.71 13.78 7.35L13.78 7.35L13.78 7.35Q14.43 7.99 14.43 9.37L14.43 9.37L14.43 9.37Q14.43 9.84 14.39 10.22L14.39 10.22L10.32 10.22L10.32 10.60L10.32 10.60Q10.32 11.82 10.82 12.37L10.82 12.37L10.82 12.37Q11.31 12.92 12.26 12.92L12.26 12.92L12.26 12.92Q13.10 12.92 14.25 12.60L14.25 12.60L14.36 13.15L14.36 13.15Q13.30 13.86 11.83 13.86L11.83 13.86ZM10.35 9.55L12.75 9.41L12.75 9.10L12.75 9.10Q12.75 8.34 12.54 7.96L12.54 7.96L12.54 7.96Q12.32 7.57 11.76 7.57L11.76 7.57L11.76 7.57Q10.99 7.57 10.69 8.04L10.69 8.04L10.69 8.04Q10.39 8.51 10.35 9.55L10.35 9.55ZM19.10 7.78L19.10 7.78Q18.48 7.78 17.98 8.02L17.98 8.02L17.98 12.82L19.59 13.12L19.59 13.72L15.19 13.72L15.19 13.13L16.34 12.82L16.34 7.95L15.19 7.78L15.19 7.24L17.37 6.71L17.96 6.71L17.96 7.35L17.96 7.35Q18.44 7.04 19.01 6.85L19.01 6.85L19.01 6.85Q19.59 6.66 20.08 6.66L20.08 6.66L20.08 6.66Q20.37 6.66 20.47 6.68L20.47 6.68L20.22 9.02L19.39 9.02L19.10 7.78ZM24.93 7.78L24.93 7.78Q24.32 7.78 23.81 8.02L23.81 8.02L23.81 12.82L25.42 13.12L25.42 13.72L21.03 13.72L21.03 13.13L22.18 12.82L22.18 7.95L21.03 7.78L21.03 7.24L23.21 6.71L23.80 6.71L23.80 7.35L23.80 7.35Q24.28 7.04 24.85 6.85L24.85 6.85L24.85 6.85Q25.42 6.66 25.91 6.66L25.91 6.66L25.91 6.66Q26.21 6.66 26.31 6.68L26.31 6.68L26.05 9.02L25.23 9.02L24.93 7.78ZM29.58 6.83L29.58 7.35L28.88 7.69L30.34 11.54L31.61 7.71L30.66 7.48L30.66 6.83L33.59 6.83L33.59 7.45L32.70 7.71L30.70 13.24L30.70 13.24Q30.20 14.67 29.61 15.37L29.61 15.37L29.61 15.37Q29.02 16.07 28.14 16.07L28.14 16.07L28.14 16.07Q27.51 16.07 26.68 15.69L26.68 15.69L26.78 15.12L27.58 15.12L27.58 15.12Q28.28 15.12 28.71 14.69L28.71 14.69L28.71 14.69Q29.15 14.25 29.51 13.38L29.51 13.38L27.13 7.69L26.39 7.35L26.39 6.83L29.58 6.83ZM43.15 13.41L43.15 13.41Q42.52 13.64 41.93 13.75L41.93 13.75L41.93 13.75Q41.34 13.86 40.57 13.86L40.57 13.86L40.57 13.86Q38.49 13.86 37.47 12.61L37.47 12.61L37.47 12.61Q36.46 11.35 36.46 9.37L36.46 9.37L36.46 9.37Q36.46 7.39 37.46 6.16L37.46 6.16L37.46 6.16Q38.46 4.93 40.57 4.93L40.57 4.93L40.57 4.93Q41.37 4.93 41.93 5.03L41.93 5.03L41.93 5.03Q42.49 5.14 43.15 5.33L43.15 5.33L43.01 7.35L42.38 7.35L42.03 5.98L42.03 5.98Q41.47 5.81 40.82 5.81L40.82 5.81L40.82 5.81Q39.34 5.81 38.77 6.79L38.77 6.79L38.77 6.79Q38.19 7.77 38.19 9.37L38.19 9.37L38.19 9.37Q38.19 10.88 38.79 11.91L38.79 11.91L38.79 11.91Q39.38 12.95 40.77 12.95L40.77 12.95L40.77 12.95Q41.38 12.95 42.03 12.77L42.03 12.77L42.38 11.56L43.04 11.56L43.15 13.41ZM46.91 7.66L46.91 7.66Q46.33 7.66 45.78 7.84L45.78 7.84L45.46 9.02L44.77 9.02L44.53 7.22L44.53 7.22Q45.89 6.71 47.35 6.71L47.35 6.71L47.35 6.71Q48.44 6.71 49.00 7.07L49.00 7.07L49.00 7.07Q49.56 7.43 49.56 8.37L49.56 8.37L49.56 12.68L50.71 13.02L50.71 13.55L50.71 13.55Q49.81 13.79 49.20 13.79L49.20 13.79L49.20 13.79Q48.76 13.79 48.41 13.59L48.41 13.59L48.41 13.59Q48.06 13.40 47.96 13.03L47.96 13.03L47.96 13.03Q47.39 13.44 46.87 13.65L46.87 13.65L46.87 13.65Q46.35 13.86 45.77 13.86L45.77 13.86L45.77 13.86Q45.02 13.86 44.60 13.38L44.60 13.38L44.60 13.38Q44.17 12.89 44.17 12.14L44.17 12.14L44.17 12.14Q44.17 11.47 44.57 10.90L44.57 10.90L44.57 10.90Q44.97 10.33 45.96 10.14L45.96 10.14L47.92 9.76L47.92 8.71L47.92 8.71Q47.92 8.15 47.70 7.90L47.70 7.90L47.70 7.90Q47.47 7.66 46.91 7.66L46.91 7.66ZM46.87 10.72L46.87 10.72Q46.30 10.85 46.05 11.16L46.05 11.16L46.05 11.16Q45.81 11.47 45.81 11.94L45.81 11.94L45.81 11.94Q45.81 12.82 46.63 12.82L46.63 12.82L46.63 12.82Q46.93 12.82 47.29 12.69L47.29 12.69L47.29 12.69Q47.66 12.56 47.92 12.39L47.92 12.39L47.92 10.50L46.87 10.72ZM53.56 7.07L53.56 7.07Q53.84 6.92 54.26 6.81L54.26 6.81L54.26 6.81Q54.67 6.71 55.05 6.71L55.05 6.71L55.05 6.71Q56.55 6.71 57.36 7.57L57.36 7.57L57.36 7.57Q58.17 8.44 58.17 10.22L58.17 10.22L58.17 10.22Q58.17 11.80 57.39 12.83L57.39 12.83L57.39 12.83Q56.60 13.86 54.67 13.86L54.67 13.86L54.67 13.86Q54.08 13.86 53.25 13.75L53.25 13.75L53.25 13.75Q52.42 13.64 51.91 13.48L51.91 13.48L51.91 4.75L50.78 4.59L50.78 4.05L53.03 3.50L53.56 3.50L53.56 7.07ZM53.56 12.82L53.56 12.82Q53.72 12.91 54.01 12.96L54.01 12.96L54.01 12.96Q54.31 13.02 54.67 13.02L54.67 13.02L54.67 13.02Q55.65 13.02 56.02 12.36L56.02 12.36L56.02 12.36Q56.39 11.69 56.39 10.25L56.39 10.25L56.39 10.25Q56.39 8.86 56.03 8.20L56.03 8.20L56.03 8.20Q55.66 7.55 54.70 7.55L54.70 7.55L54.70 7.55Q54.36 7.55 54.10 7.62L54.10 7.62L54.10 7.62Q53.84 7.69 53.56 7.84L53.56 7.84L53.56 12.82Z"></path></g><!----><g data-v-423bf9ae="" id="2b2100a1-2fdf-4708-b540-650b6eceeb34" transform="matrix(1.1111111111111112,0,0,1.1111111111111112,-13.055555555555557,0.4520000004106066)" stroke="none" fill="black"><path d="M87.5 36.172C87.5 16.158 70.715-.068 50-.068c-20.709 0-37.5 16.226-37.5 36.24 0 37.002 37.5 63.76 37.5 63.76s37.5-26.757 37.5-63.76zM50 54.52c-10.309 0-18.665-8.072-18.665-18.039 0-9.964 8.356-18.039 18.665-18.039s18.652 8.075 18.652 18.039c0 9.966-8.343 18.039-18.652 18.039z"></path></g><!----><g data-v-423bf9ae="" id="9a3b5333-8742-4b96-8ec9-558da9cba5ce" fill="black" transform="matrix(1.3705475404427276,0,0,1.3705475404427276,102.81251789684426,57.067028962127004)"><path d="M0.87 3.64L0.38 3.64L0.39 3.08L3.98 3.08L3.98 3.64L3.34 3.64L3.34 3.64Q2.97 3.64 2.85 3.72L2.85 3.72L2.85 3.72Q2.74 3.80 2.74 4.16L2.74 4.16L2.74 11.22L2.74 11.22Q2.74 11.57 2.83 11.67L2.83 11.67L2.83 11.67Q2.91 11.77 3.21 11.77L3.21 11.77L3.21 11.77Q6.08 11.74 6.73 11.63L6.73 11.63L6.73 11.63Q6.95 11.61 7.03 11.39L7.03 11.39L7.03 11.39Q7.11 11.17 7.31 10.05L7.31 10.05L7.80 10.08L7.33 12.41L0.57 12.41L0.56 11.87L0.95 11.87L0.95 11.87Q1.46 11.87 1.52 11.80L1.52 11.80L1.52 11.80Q1.61 11.72 1.61 11.33L1.61 11.33L1.61 4.09L1.61 4.09Q1.61 3.80 1.46 3.72L1.46 3.72L1.46 3.72Q1.31 3.64 0.87 3.64L0.87 3.64ZM15.49 9.85L15.49 9.85L15.49 9.85Q15.49 8.49 16.19 7.67L16.19 7.67L16.19 7.67Q16.91 6.83 17.97 6.83L17.97 6.83L17.97 6.83Q19.01 6.83 19.65 7.47L19.65 7.47L19.65 7.47Q20.30 8.11 20.30 8.62L20.30 8.62L20.30 8.62Q20.30 8.72 20.22 8.77L20.22 8.77L20.22 8.77Q20.15 8.83 20.07 8.83L20.07 8.83L16.56 9.25L16.56 9.33L16.56 9.33Q16.56 9.36 16.55 9.40L16.55 9.40L16.55 9.40Q16.54 9.43 16.54 9.45L16.54 9.45L16.54 9.45Q16.54 10.49 17.13 11.07L17.13 11.07L17.13 11.07Q17.71 11.64 18.61 11.64L18.61 11.64L18.61 11.64Q19.11 11.64 19.51 11.48L19.51 11.48L19.51 11.48Q19.94 11.29 20.15 11.16L20.15 11.16L20.15 11.16Q20.41 10.99 20.47 10.99L20.47 10.99L20.47 10.99Q20.60 10.99 20.60 11.16L20.60 11.16L20.60 11.16Q20.60 11.34 20.30 11.64L20.30 11.64L20.30 11.64Q19.96 11.98 19.37 12.28L19.37 12.28L19.37 12.28Q18.72 12.60 18.05 12.60L18.05 12.60L18.05 12.60Q17.36 12.60 16.84 12.33L16.84 12.33L16.84 12.33Q16.29 12.05 16.02 11.61L16.02 11.61L16.02 11.61Q15.73 11.14 15.62 10.75L15.62 10.75L15.62 10.75Q15.49 10.32 15.49 9.85ZM16.58 8.76L16.58 8.76L18.99 8.45L18.99 8.45Q18.99 8.44 18.98 8.39L18.98 8.39L18.98 8.39Q18.96 8.35 18.95 8.33L18.95 8.33L18.95 8.33Q18.94 8.31 18.89 8.22L18.89 8.22L18.89 8.22Q18.84 8.13 18.79 8.05L18.79 8.05L18.79 8.05Q18.68 7.83 18.57 7.70L18.57 7.70L18.57 7.70Q18.46 7.57 18.24 7.43L18.24 7.43L18.24 7.43Q18.03 7.31 17.83 7.30L17.83 7.30L17.83 7.30Q17.40 7.30 17.04 7.70L17.04 7.70L17.04 7.70Q16.68 8.10 16.58 8.76ZM28.23 7.58L28.23 7.58L28.23 7.58Q28.23 7.55 28.33 7.40L28.33 7.40L28.33 7.40Q28.40 7.31 28.70 7.01L28.70 7.01L28.70 7.01Q28.86 6.85 29.03 6.64L29.03 6.64L29.42 6.17L29.79 5.71L29.79 5.71Q29.91 5.54 29.96 5.54L29.96 5.54L29.96 5.54Q30.04 5.54 30.04 5.64L30.04 5.64L30.04 7.03L31.94 7.03L31.85 7.70L30.04 7.70L30.04 10.96L30.04 10.96Q30.04 11.79 30.99 11.79L30.99 11.79L30.99 11.79Q31.23 11.79 31.47 11.72L31.47 11.72L31.47 11.72Q31.71 11.66 31.85 11.59L31.85 11.59L31.85 11.59Q31.89 11.57 31.93 11.55L31.93 11.55L31.93 11.55Q31.96 11.53 31.99 11.53L31.99 11.53L32.01 11.52L32.01 11.52Q32.10 11.52 32.10 11.66L32.10 11.66L32.10 11.66Q32.10 11.95 31.54 12.26L31.54 12.26L31.54 12.26Q30.99 12.57 30.44 12.57L30.44 12.57L30.44 12.57Q29.73 12.57 29.40 12.16L29.40 12.16L29.40 12.16Q29.07 11.74 29.07 11.07L29.07 11.07L29.07 7.70L28.40 7.70L28.40 7.70Q28.23 7.69 28.23 7.58ZM39.66 5.60L39.66 5.60L39.66 5.60Q39.66 5.40 40.00 4.48L40.00 4.48L40.00 4.48Q40.05 4.31 40.20 3.79L40.20 3.79L40.38 3.13L40.38 3.13Q40.44 2.88 40.54 2.63L40.54 2.63L40.54 2.63Q40.64 2.40 40.80 2.26L40.80 2.26L40.80 2.26Q40.95 2.14 41.15 2.14L41.15 2.14L41.15 2.14Q41.36 2.14 41.47 2.29L41.47 2.29L41.47 2.29Q41.56 2.43 41.57 2.60L41.57 2.60L41.57 2.60Q41.57 2.78 41.41 3.13L41.41 3.13L41.41 3.13Q41.32 3.36 40.94 3.99L40.94 3.99L40.94 3.99Q40.69 4.40 40.54 4.69L40.54 4.69L40.54 4.69Q40.50 4.76 40.48 4.83L40.48 4.83L40.48 4.83Q40.45 4.89 40.42 4.95L40.42 4.95L40.42 4.95Q40.39 5.01 40.33 5.11L40.33 5.11L40.33 5.11Q40.22 5.32 40.18 5.41L40.18 5.41L40.18 5.41Q40.17 5.46 40.12 5.53L40.12 5.53L40.12 5.53Q40.07 5.60 40.05 5.61L40.05 5.61L40.05 5.61Q40.00 5.71 39.94 5.74L39.94 5.74L39.94 5.74Q39.89 5.76 39.83 5.76L39.83 5.76L39.83 5.76Q39.66 5.77 39.66 5.60ZM50.00 12.76L49.75 10.44L50.19 10.41L50.33 11.57L50.33 11.57Q51.07 12.12 51.86 12.12L51.86 12.12L51.86 12.12Q52.25 12.12 52.47 11.87L52.47 11.87L52.47 11.87Q52.68 11.61 52.68 11.32L52.68 11.32L52.68 11.32Q52.68 11.09 52.53 10.86L52.53 10.86L52.53 10.86Q52.39 10.64 52.22 10.51L52.22 10.51L52.22 10.51Q52.05 10.38 51.71 10.16L51.71 10.16L51.21 9.82L51.21 9.82Q50.16 9.13 50.16 8.27L50.16 8.27L50.16 8.27Q50.16 7.70 50.65 7.29L50.65 7.29L50.65 7.29Q51.15 6.87 51.86 6.87L51.86 6.87L51.86 6.87Q52.27 6.87 52.68 6.99L52.68 6.99L53.08 7.12L53.08 7.12Q53.20 7.12 53.21 6.70L53.21 6.70L53.66 6.71L53.66 8.83L53.21 8.83L53.20 7.83L53.20 7.83Q52.75 7.37 51.88 7.38L51.88 7.38L51.88 7.38Q51.60 7.38 51.33 7.57L51.33 7.57L51.33 7.57Q51.08 7.77 51.08 8.05L51.08 8.05L51.08 8.05Q51.08 8.23 51.22 8.44L51.22 8.44L51.22 8.44Q51.34 8.63 51.45 8.69L51.45 8.69L51.85 8.98L52.48 9.41L52.48 9.41Q52.88 9.68 53.12 9.86L53.12 9.86L53.12 9.86Q53.37 10.06 53.53 10.36L53.53 10.36L53.53 10.36Q53.72 10.66 53.72 11.01L53.72 11.01L53.72 11.01Q53.72 11.67 53.24 12.13L53.24 12.13L53.24 12.13Q52.75 12.60 51.89 12.60L51.89 12.60L51.89 12.60Q51.60 12.60 51.29 12.55L51.29 12.55L51.29 12.55Q51.17 12.54 50.76 12.46L50.76 12.46L50.76 12.46Q50.55 12.41 50.52 12.41L50.52 12.41L50.52 12.41Q50.40 12.41 50.39 12.60L50.39 12.60L50.39 12.67L50.39 12.67Q50.39 12.68 50.40 12.71L50.40 12.71L50.41 12.74L50.00 12.76ZM70.75 14.55L70.75 14.55L70.75 14.55Q70.75 13.45 72.19 12.87L72.19 12.87L72.69 12.69L72.69 12.69Q72.59 12.69 72.54 12.68L72.54 12.68L72.54 12.68Q72.51 12.68 72.40 12.65L72.40 12.65L72.40 12.65Q72.30 12.61 72.21 12.58L72.21 12.58L72.21 12.58Q72.06 12.54 71.80 12.43L71.80 12.43L71.80 12.43Q71.62 12.35 71.48 12.19L71.48 12.19L71.48 12.19Q71.33 12.00 71.33 11.83L71.33 11.83L71.33 11.83Q71.33 11.21 72.45 10.88L72.45 10.88L72.63 10.83L72.63 10.83Q72.62 10.83 72.57 10.82L72.57 10.82L72.57 10.82Q72.52 10.80 72.50 10.79L72.50 10.79L72.50 10.79Q72.43 10.76 72.17 10.60L72.17 10.60L72.17 10.60Q71.99 10.49 71.78 10.25L71.78 10.25L71.78 10.25Q71.59 10.04 71.46 9.70L71.46 9.70L71.46 9.70Q71.32 9.37 71.32 8.93L71.32 8.93L71.32 8.93Q71.32 8.07 71.99 7.44L71.99 7.44L71.99 7.44Q72.66 6.82 73.53 6.82L73.53 6.82L73.53 6.82Q74.14 6.82 74.65 7.11L74.65 7.11L74.65 7.11Q75.13 7.39 75.57 7.39L75.57 7.39L75.57 7.39Q75.81 7.39 75.97 7.33L75.97 7.33L75.97 7.33Q76.15 7.27 76.17 7.23L76.17 7.23L76.17 7.23Q76.24 7.16 76.30 7.07L76.30 7.07L76.37 6.91L76.67 6.91L76.67 7.26L76.67 7.26Q76.67 7.77 76.58 7.89L76.58 7.89L76.58 7.89Q76.49 8.02 76.10 8.02L76.10 8.02L75.88 8.02L75.88 8.02Q75.50 8.02 75.50 8.06L75.50 8.06L75.50 8.06Q75.50 8.10 75.59 8.20L75.59 8.20L75.59 8.20Q75.67 8.30 75.76 8.52L75.76 8.52L75.76 8.52Q75.82 8.70 75.82 9.02L75.82 9.02L75.82 9.02Q75.82 9.84 75.18 10.40L75.18 10.40L75.18 10.40Q74.53 10.97 73.53 10.97L73.53 10.97L73.53 10.97Q72.96 10.97 72.65 11.09L72.65 11.09L72.65 11.09Q72.32 11.22 72.32 11.48L72.32 11.48L72.32 11.48Q72.32 11.59 72.39 11.69L72.39 11.69L72.39 11.69Q72.45 11.76 72.62 11.79L72.62 11.79L72.62 11.79Q72.63 11.79 72.74 11.81L72.74 11.81L72.74 11.81Q72.84 11.83 72.90 11.83L72.90 11.83L73.23 11.83L73.29 11.83L73.75 11.83L73.75 11.83Q73.86 11.83 74.03 11.82L74.03 11.82L74.03 11.82Q74.20 11.81 74.25 11.81L74.25 11.81L74.25 11.81Q76.79 11.81 76.79 13.38L76.79 13.38L76.79 13.38Q76.79 14.42 75.71 15.26L75.71 15.26L75.71 15.26Q74.64 16.10 73.02 16.10L73.02 16.10L73.02 16.10Q72.13 16.10 71.44 15.70L71.44 15.70L71.44 15.70Q70.75 15.30 70.75 14.55ZM71.82 14.39L71.82 14.39L71.82 14.39Q71.82 14.87 72.23 15.16L72.23 15.16L72.23 15.16Q72.63 15.45 73.45 15.45L73.45 15.45L73.45 15.45Q74.35 15.45 75.08 15.00L75.08 15.00L75.08 15.00Q75.81 14.55 75.81 13.76L75.81 13.76L75.81 13.76Q75.81 12.72 74.06 12.72L74.06 12.72L74.06 12.72Q73.11 12.72 72.46 13.25L72.46 13.25L72.46 13.25Q71.82 13.79 71.82 14.39ZM72.48 8.83L72.48 8.83L72.48 8.83Q72.48 9.65 72.83 10.09L72.83 10.09L72.83 10.09Q73.18 10.54 73.64 10.54L73.64 10.54L73.64 10.54Q74.05 10.54 74.34 10.16L74.34 10.16L74.34 10.16Q74.63 9.78 74.63 9.07L74.63 9.07L74.63 9.07Q74.63 8.26 74.30 7.80L74.30 7.80L74.30 7.80Q73.96 7.33 73.49 7.33L73.49 7.33L73.49 7.33Q73.07 7.33 72.78 7.72L72.78 7.72L72.78 7.72Q72.48 8.13 72.48 8.83ZM84.43 9.69L84.43 9.69L84.43 9.69Q84.43 8.48 85.13 7.66L85.13 7.66L85.13 7.66Q85.86 6.80 87.21 6.80L87.21 6.80L87.21 6.80Q87.89 6.80 88.41 7.01L88.41 7.01L88.41 7.01Q89.00 7.25 89.26 7.51L89.26 7.51L89.26 7.51Q89.57 7.82 89.78 8.24L89.78 8.24L89.78 8.24Q89.97 8.61 90.06 9.05L90.06 9.05L90.06 9.05Q90.14 9.43 90.15 9.84L90.15 9.84L90.15 9.84Q90.15 11.03 89.35 11.83L89.35 11.83L89.35 11.83Q88.55 12.63 87.23 12.63L87.23 12.63L87.23 12.63Q85.90 12.63 85.16 11.74L85.16 11.74L85.16 11.74Q84.43 10.88 84.43 9.69ZM85.55 9.34L85.55 9.34L85.55 9.34Q85.55 10.38 86.08 11.24L86.08 11.24L86.08 11.24Q86.60 12.08 87.41 12.08L87.41 12.08L87.41 12.08Q88.21 12.08 88.59 11.42L88.59 11.42L88.59 11.42Q88.97 10.76 88.97 9.80L88.97 9.80L88.97 9.80Q88.97 8.57 88.44 7.94L88.44 7.94L88.44 7.94Q87.89 7.28 87.08 7.27L87.08 7.27L87.08 7.27Q86.43 7.27 85.99 7.82L85.99 7.82L85.99 7.82Q85.55 8.35 85.55 9.34ZM111.15 12.41L107.42 12.41L107.42 11.87L107.86 11.87L107.86 11.87Q108.23 11.87 108.29 11.81L108.29 11.81L108.29 11.81Q108.36 11.74 108.36 11.46L108.36 11.46L108.36 4.14L108.36 4.14Q108.36 3.81 108.28 3.72L108.28 3.72L108.28 3.72Q108.19 3.64 107.83 3.64L107.83 3.64L107.46 3.64L107.47 3.08L110.36 3.08L110.36 3.08Q111.51 3.08 112.16 3.19L112.16 3.19L112.16 3.19Q112.76 3.28 113.23 3.68L113.23 3.68L113.23 3.68Q114.42 4.64 114.42 6.19L114.42 6.19L114.42 6.19Q114.42 7.23 113.65 7.98L113.65 7.98L113.65 7.98Q112.88 8.74 111.47 8.73L111.47 8.73L111.47 8.73Q111.30 8.73 110.88 8.70L110.88 8.70L110.88 8.70Q110.77 8.69 110.35 8.62L110.35 8.62L110.35 8.62Q110.01 8.55 109.92 8.54L109.92 8.54L109.92 8.54Q109.62 8.47 109.61 8.46L109.61 8.46L109.49 8.44L109.49 11.46L109.49 11.46Q109.49 11.74 109.62 11.81L109.62 11.81L109.62 11.81Q109.73 11.87 110.45 11.87L110.45 11.87L111.15 11.87L111.15 12.41ZM109.49 4.28L109.49 8.02L109.49 8.02Q109.84 8.29 110.81 8.29L110.81 8.29L110.81 8.29Q111.95 8.29 112.52 7.75L112.52 7.75L112.52 7.75Q113.11 7.21 113.11 6.16L113.11 6.16L113.11 6.16Q113.11 4.98 112.20 4.31L112.20 4.31L112.20 4.31Q111.30 3.64 109.92 3.64L109.92 3.64L109.92 3.64Q109.66 3.64 109.58 3.75L109.58 3.75L109.58 3.75Q109.50 3.84 109.49 4.28L109.49 4.28ZM122.40 11.50L122.40 11.50L122.40 11.50Q122.40 10.64 123.21 10.01L123.21 10.01L123.21 10.01Q124.05 9.37 125.21 9.37L125.21 9.37L125.21 8.52L125.21 8.52Q125.21 8.03 125.05 7.78L125.05 7.78L125.05 7.78Q124.88 7.53 124.28 7.53L124.28 7.53L124.28 7.53Q123.35 7.55 123.14 7.96L123.14 7.96L123.14 7.96Q123.17 8.10 123.20 8.19L123.20 8.19L123.20 8.19Q123.21 8.24 123.23 8.33L123.23 8.33L123.25 8.42L123.25 8.42Q123.28 8.53 123.28 8.58L123.28 8.58L123.28 8.58Q123.28 8.75 123.12 8.85L123.12 8.85L123.12 8.85Q122.96 8.94 122.83 8.94L122.83 8.94L122.83 8.94Q122.51 8.94 122.51 8.44L122.51 8.44L122.51 8.44Q122.51 8.25 122.61 8.05L122.61 8.05L122.61 8.05Q122.72 7.79 122.96 7.54L122.96 7.54L122.96 7.54Q123.22 7.25 123.74 7.07L123.74 7.07L123.74 7.07Q124.29 6.87 124.96 6.87L124.96 6.87L124.96 6.87Q125.19 6.87 125.30 6.90L125.30 6.90L125.30 6.90Q125.48 6.94 125.69 7.04L125.69 7.04L125.69 7.04Q125.90 7.14 126.05 7.40L126.05 7.40L126.05 7.40Q126.19 7.64 126.19 7.99L126.19 7.99L126.19 10.61L126.19 10.61Q126.19 11.12 126.38 11.44L126.38 11.44L126.38 11.44Q126.55 11.73 127.10 11.88L127.10 11.88L127.10 11.88Q127.22 11.92 127.23 12.00L127.23 12.00L127.23 12.00Q127.23 12.08 127.10 12.15L127.10 12.15L127.10 12.15Q126.41 12.61 126.27 12.65L126.27 12.65L126.27 12.65Q126.04 12.48 125.94 12.39L125.94 12.39L125.73 12.17L125.52 11.92L125.52 11.92Q125.48 11.88 125.44 11.82L125.44 11.82L125.44 11.82Q125.40 11.76 125.37 11.72L125.37 11.72L125.37 11.72Q125.34 11.69 125.32 11.67L125.32 11.67L125.32 11.67Q125.08 12.00 124.58 12.30L124.58 12.30L124.58 12.30Q124.13 12.57 123.69 12.57L123.69 12.57L123.69 12.57Q123.18 12.57 122.79 12.30L122.79 12.30L122.79 12.30Q122.40 12.04 122.40 11.50ZM123.38 11.09L123.38 11.09L123.38 11.09Q123.38 11.39 123.59 11.60L123.59 11.60L123.59 11.60Q123.80 11.81 124.22 11.81L124.22 11.81L124.22 11.81Q124.76 11.81 124.99 11.57L124.99 11.57L124.99 11.57Q125.21 11.35 125.21 11.04L125.21 11.04L125.21 9.74L125.21 9.74Q124.40 9.74 123.89 10.16L123.89 10.16L123.89 10.16Q123.38 10.59 123.38 11.09ZM134.61 7.63L134.57 7.19L134.57 7.19Q135.34 7.03 136.61 6.73L136.61 6.73L136.61 8.31L136.68 8.19L136.68 8.19Q136.69 8.15 136.72 8.10L136.72 8.10L136.72 8.10Q136.75 8.06 136.78 8.01L136.78 8.01L136.78 8.01Q136.82 7.96 136.83 7.92L136.83 7.92L136.83 7.92Q136.90 7.81 137.07 7.58L137.07 7.58L137.07 7.58Q137.22 7.39 137.36 7.25L137.36 7.25L137.36 7.25Q137.48 7.12 137.72 6.99L137.72 6.99L137.72 6.99Q137.92 6.88 138.11 6.88L138.11 6.88L138.11 6.88Q138.33 6.88 138.55 6.98L138.55 6.98L138.55 6.98Q138.74 7.06 138.80 7.15L138.80 7.15L138.88 7.23L138.35 8.62L138.12 8.54L138.12 8.35L138.12 8.35Q138.12 8.03 137.79 8.03L137.79 8.03L137.79 8.03Q137.42 8.03 137.03 8.34L137.03 8.34L137.03 8.34Q136.64 8.65 136.64 9.02L136.64 9.02L136.64 11.39L136.64 11.39Q136.64 11.78 136.77 11.87L136.77 11.87L136.77 11.87Q136.94 11.96 137.52 11.96L137.52 11.96L138.12 11.96L138.12 12.41L134.78 12.41L134.78 11.96L135.04 11.96L135.04 11.96Q135.44 11.96 135.56 11.88L135.56 11.88L135.56 11.88Q135.65 11.80 135.66 11.39L135.66 11.39L135.66 7.98L135.66 7.98Q135.66 7.66 135.63 7.58L135.63 7.58L135.63 7.58Q135.58 7.47 135.46 7.47L135.46 7.47L135.46 7.47Q135.45 7.47 135.36 7.49L135.36 7.49L135.36 7.49Q135.28 7.50 135.05 7.54L135.05 7.54L135.05 7.54Q134.82 7.58 134.61 7.63L134.61 7.63ZM146.49 7.57L146.47 7.15L146.47 7.15Q147.51 6.98 148.45 6.73L148.45 6.73L148.45 11.59L148.45 11.59Q148.45 11.83 148.57 11.89L148.57 11.89L148.57 11.89Q148.71 11.96 149.32 11.96L149.32 11.96L149.57 11.96L149.57 12.41L146.53 12.41L146.53 11.96L146.66 11.96L146.66 11.96Q147.21 11.96 147.33 11.91L147.33 11.91L147.33 11.91Q147.46 11.85 147.47 11.64L147.47 11.64L147.47 7.91L147.47 7.91Q147.47 7.64 147.43 7.55L147.43 7.55L147.43 7.55Q147.39 7.46 147.26 7.46L147.26 7.46L147.26 7.46Q147.09 7.46 146.49 7.57L146.49 7.57ZM147.53 4.09L147.53 4.09L147.53 4.09Q147.53 3.92 147.75 3.72L147.75 3.72L147.75 3.72Q147.97 3.51 148.11 3.51L148.11 3.51L148.11 3.51Q148.25 3.51 148.48 3.73L148.48 3.73L148.48 3.73Q148.72 3.97 148.72 4.11L148.72 4.11L148.72 4.11Q148.72 4.25 148.48 4.49L148.48 4.49L148.48 4.49Q148.24 4.73 148.11 4.73L148.11 4.73L148.11 4.73Q147.93 4.73 147.72 4.48L147.72 4.48L147.72 4.48Q147.53 4.23 147.53 4.09ZM157.35 12.76L157.10 10.44L157.53 10.41L157.67 11.57L157.67 11.57Q158.42 12.12 159.21 12.12L159.21 12.12L159.21 12.12Q159.60 12.12 159.81 11.87L159.81 11.87L159.81 11.87Q160.02 11.61 160.02 11.32L160.02 11.32L160.02 11.32Q160.02 11.09 159.87 10.86L159.87 10.86L159.87 10.86Q159.74 10.64 159.56 10.51L159.56 10.51L159.56 10.51Q159.39 10.38 159.06 10.16L159.06 10.16L158.55 9.82L158.55 9.82Q157.50 9.13 157.50 8.27L157.50 8.27L157.50 8.27Q157.50 7.70 157.99 7.29L157.99 7.29L157.99 7.29Q158.50 6.87 159.21 6.87L159.21 6.87L159.21 6.87Q159.61 6.87 160.02 6.99L160.02 6.99L160.43 7.12L160.43 7.12Q160.55 7.12 160.56 6.70L160.56 6.70L161 6.71L161 8.83L160.56 8.83L160.54 7.83L160.54 7.83Q160.09 7.37 159.22 7.38L159.22 7.38L159.22 7.38Q158.94 7.38 158.68 7.57L158.68 7.57L158.68 7.57Q158.42 7.77 158.43 8.05L158.43 8.05L158.43 8.05Q158.43 8.23 158.57 8.44L158.57 8.44L158.57 8.44Q158.69 8.63 158.79 8.69L158.79 8.69L159.20 8.98L159.82 9.41L159.82 9.41Q160.22 9.68 160.46 9.86L160.46 9.86L160.46 9.86Q160.71 10.06 160.88 10.36L160.88 10.36L160.88 10.36Q161.06 10.66 161.06 11.01L161.06 11.01L161.06 11.01Q161.06 11.67 160.58 12.13L160.58 12.13L160.58 12.13Q160.10 12.60 159.24 12.60L159.24 12.60L159.24 12.60Q158.94 12.60 158.63 12.55L158.63 12.55L158.63 12.55Q158.51 12.54 158.11 12.46L158.11 12.46L158.11 12.46Q157.90 12.41 157.87 12.41L157.87 12.41L157.87 12.41Q157.75 12.41 157.74 12.60L157.74 12.60L157.74 12.67L157.74 12.67Q157.74 12.68 157.75 12.71L157.75 12.71L157.75 12.74L157.35 12.76Z"></path></g></svg>